<svg width="35" height="30" viewBox="0 0 35 30" fill="none" xmlns="http://www.w3.org/2000/svg">
<path d="M11.0498 25.2695L11.2695 25.2793C11.779 25.3258 12.2644 25.5312 12.6396 25.873L12.792 26.0273C13.1286 26.4016 13.3216 26.8794 13.3223 27.3838V27.3848L13.3164 27.5449C13.2904 27.8637 13.1874 28.171 13.0176 28.4443L12.9268 28.5781C12.7035 28.8824 12.402 29.1233 12.0557 29.2822L11.9043 29.3447C11.546 29.4799 11.1582 29.527 10.7773 29.4844L10.6143 29.4609C10.2358 29.3924 9.8798 29.235 9.58203 29.001L9.45898 28.8965C9.13813 28.6042 8.91291 28.226 8.82129 27.8066C8.72957 27.3866 8.7777 26.9518 8.95605 26.5596L9.02832 26.416C9.20963 26.0882 9.47784 25.8126 9.80371 25.6143L9.94629 25.5342C10.2844 25.3598 10.6642 25.2696 11.0488 25.2695H11.0498ZM28.7842 25.2695L29.0039 25.2793C29.5132 25.3258 29.9979 25.5315 30.373 25.873L30.5264 26.0273C30.8629 26.4016 31.056 26.8795 31.0566 27.3838V27.3848L31.0498 27.5449C31.0195 27.9168 30.8848 28.2732 30.6611 28.5781C30.406 28.9258 30.0483 29.1901 29.6387 29.3447C29.2802 29.48 28.8918 29.5271 28.5107 29.4844L28.3486 29.4609C27.9703 29.3924 27.6141 29.2349 27.3164 29.001L27.1924 28.8965C26.9117 28.6408 26.7044 28.3192 26.5957 27.9619L26.5557 27.8066C26.464 27.3867 26.5112 26.9517 26.6895 26.5596L26.7617 26.416C26.9431 26.088 27.212 25.8127 27.5381 25.6143L27.6807 25.5342C28.0188 25.3598 28.3985 25.2695 28.7832 25.2695H28.7842ZM4.25879 0.5L4.45312 0.507812C4.90478 0.543656 5.34005 0.704439 5.69824 0.976562L5.8457 1.09961C6.1766 1.39948 6.4069 1.79124 6.49414 2.22754L7.22656 5.88477H32.0957L32.3389 5.89648C32.5816 5.92057 32.82 5.98072 33.0439 6.07617L33.2617 6.18262C33.4728 6.29982 33.6631 6.44986 33.8252 6.62695L33.9775 6.81152C34.1184 7.00444 34.2246 7.21996 34.291 7.44922L34.3438 7.68066C34.382 7.91448 34.378 8.15381 34.3311 8.3877L31.7529 21.3096C31.666 21.7463 31.4356 22.1383 31.1045 22.4385L30.957 22.5615C30.5988 22.8339 30.1638 22.9954 29.7119 23.0312L29.5176 23.0381H10.3281C9.87295 23.0382 9.42565 22.912 9.04688 22.6719L8.88965 22.5615C8.53083 22.2889 8.26593 21.9178 8.13867 21.4951L8.09277 21.3105L5.2627 7.17383V7.17285C5.25324 7.13647 5.24551 7.09979 5.24023 7.0625L4.35059 2.61719C4.35035 2.61641 4.3473 2.60899 4.33496 2.59961C4.31911 2.58774 4.29268 2.57722 4.25977 2.57715H1.59082C1.35017 2.57708 1.11175 2.50101 0.916992 2.35547L0.836914 2.28906C0.654034 2.12248 0.533101 1.89567 0.505859 1.64648L0.5 1.53809L0.505859 1.43066C0.533054 1.18139 0.65398 0.95472 0.836914 0.788086L0.916992 0.72168C1.11177 0.576085 1.35012 0.500066 1.59082 0.5H4.25879ZM10.2363 20.9219L10.252 20.9385L10.2832 20.9541C10.296 20.9584 10.3114 20.9619 10.3281 20.9619H29.5186L29.5625 20.9541C29.5753 20.9499 29.5858 20.9444 29.5938 20.9385C29.6087 20.9271 29.6099 20.9192 29.6094 20.9219L32.1865 8.00098V7.99902L32.1807 7.99316C32.1752 7.98722 32.1657 7.9792 32.1504 7.97266L32.0957 7.96191H7.64258L10.2363 20.9219Z" fill="white" stroke="white"/>
<rect x="8.64746" y="8.19092" width="22.4832" height="12.9505" fill="white" stroke="white"/>
</svg>
