<svg width="33" height="28" viewBox="0 0 33 28" fill="none" xmlns="http://www.w3.org/2000/svg">
<path d="M32.5862 5.96494C32.4193 5.78306 32.2103 5.63677 31.974 5.53647C31.7378 5.43617 31.4801 5.38432 31.2193 5.38462H5.8396L5.02386 1.32558C4.94916 0.95349 4.7329 0.616987 4.41277 0.374741C4.09265 0.132495 3.68896 -0.000126024 3.27211 8.98612e-08H0.59348C0.436079 8.98612e-08 0.285125 0.0567308 0.173826 0.157712C0.0625271 0.258693 0 0.395653 0 0.538462C0 0.681271 0.0625271 0.81823 0.173826 0.919211C0.285125 1.02019 0.436079 1.07692 0.59348 1.07692H3.27211C3.41107 1.07687 3.54564 1.12108 3.65235 1.20184C3.75907 1.2826 3.83115 1.39478 3.85602 1.51883L4.74958 5.96416C4.75267 6.0018 4.76015 6.03903 4.77189 6.07524L7.61323 20.2129C7.68791 20.585 7.90415 20.9214 8.22425 21.1637C8.54435 21.4059 8.948 21.5386 9.36484 21.5385H28.631C29.0481 21.5386 29.4519 21.4059 29.7721 21.1634C30.0922 20.921 30.3084 20.5842 30.3828 20.2119L32.971 7.28882C33.0179 7.05605 33.0078 6.81676 32.9413 6.58795C32.8748 6.35914 32.7535 6.14644 32.5862 5.96494ZM31.8032 7.09622L29.215 20.0193C29.1902 20.1434 29.1181 20.2557 29.0114 20.3365C28.9047 20.4173 28.7701 20.4616 28.631 20.4615H9.36484C9.22589 20.4616 9.09134 20.4174 8.98465 20.3366C8.87796 20.2559 8.80591 20.1437 8.78106 20.0196L6.05607 6.46154H31.2193C31.3062 6.46153 31.392 6.47884 31.4708 6.51226C31.5495 6.54568 31.6192 6.59438 31.6749 6.65493C31.7306 6.71547 31.771 6.78638 31.7931 6.86263C31.8153 6.93889 31.8187 7.01863 31.8032 7.09622ZM11.8696 26.3846C11.8696 26.7041 11.7652 27.0164 11.5695 27.2821C11.3739 27.5477 11.0958 27.7548 10.7705 27.877C10.4452 27.9993 10.0872 28.0313 9.74181 27.969C9.39644 27.9066 9.07919 27.7528 8.83019 27.5269C8.58119 27.3009 8.41162 27.0131 8.34293 26.6998C8.27423 26.3864 8.30949 26.0616 8.44424 25.7664C8.579 25.4713 8.8072 25.219 9.1 25.0415C9.39279 24.864 9.73702 24.7692 10.0892 24.7692C10.5612 24.7697 11.0138 24.9401 11.3475 25.2429C11.6813 25.5457 11.8691 25.9563 11.8696 26.3846ZM29.674 26.3846C29.674 26.7041 29.5696 27.0164 29.3739 27.2821C29.1783 27.5477 28.9002 27.7548 28.5749 27.877C28.2496 27.9993 27.8916 28.0313 27.5462 27.969C27.2008 27.9066 26.8836 27.7528 26.6346 27.5269C26.3856 27.3009 26.216 27.0131 26.1473 26.6998C26.0786 26.3864 26.1139 26.0616 26.2486 25.7664C26.3834 25.4713 26.6116 25.219 26.9044 25.0415C27.1972 24.864 27.5414 24.7692 27.8935 24.7692C28.3656 24.7697 28.8181 24.9401 29.1519 25.2429C29.4857 25.5457 29.6735 25.9563 29.674 26.3846Z" fill="white"/>
</svg>
