<svg width="19" height="14" viewBox="0 0 19 14" fill="none" xmlns="http://www.w3.org/2000/svg">
<path fill-rule="evenodd" clip-rule="evenodd" d="M11.3429 5.06033C12.2814 5.03779 13.1197 4.46779 13.4857 3.60339C13.5638 3.63632 13.6474 3.65448 13.7321 3.65695H18.0179C18.4617 3.65695 18.8214 3.29723 18.8214 2.85349C18.8214 2.40975 18.4617 2.05002 18.0179 2.05002H13.7857C13.7395 2.04396 13.6927 2.04396 13.6464 2.05002C13.3395 0.844401 12.1586 0.0760694 10.9319 0.283853C9.70515 0.491636 8.84323 1.60598 8.95059 2.84539C9.05794 4.08481 10.0986 5.03439 11.3429 5.02819V5.06033ZM11.3429 1.90004C11.7748 1.90004 12.125 2.25017 12.125 2.68208C12.125 3.11399 11.7748 3.46412 11.3429 3.46412C10.9109 3.46412 10.5607 3.11399 10.5607 2.68208C10.5607 2.25017 10.9109 1.90004 11.3429 1.90004Z" fill="white"/>
<path d="M0.928572 2.05002H7.35714C7.80094 2.05002 8.16072 2.40975 8.16072 2.85349C8.16072 3.29723 7.80094 3.65695 7.35714 3.65695H0.928572C0.484771 3.65695 0.125 3.29723 0.125 2.85349C0.125 2.40975 0.484771 2.05002 0.928572 2.05002Z" fill="white"/>
<path fill-rule="evenodd" clip-rule="evenodd" d="M2.975 10.6203C3.3106 9.6712 4.20748 9.03618 5.21429 9.0348V9.01337C6.42587 9.01183 7.44682 9.91727 7.5899 11.1202C7.73298 12.3232 6.95289 13.4428 5.77473 13.7254C4.59657 14.008 3.39335 13.3641 2.975 12.2272H0.928571C0.484771 12.2272 0.125 11.8675 0.125 11.4238C0.125 10.98 0.484771 10.6203 0.928571 10.6203H2.975ZM4.43344 11.4801C4.4408 11.9062 4.78804 12.248 5.21429 12.2487V12.2058C5.64625 12.2058 5.99643 11.8557 5.99643 11.4238C5.97307 10.9982 5.61324 10.6697 5.18727 10.6851C4.76131 10.7004 4.42607 11.054 4.43344 11.4801Z" fill="white"/>
<path d="M9.5 10.6203H18.0714C18.5152 10.6203 18.875 10.98 18.875 11.4238C18.875 11.8675 18.5152 12.2272 18.0714 12.2272H9.5C9.0562 12.2272 8.69643 11.8675 8.69643 11.4238C8.69643 10.98 9.0562 10.6203 9.5 10.6203Z" fill="white"/>
</svg>
