<svg width="30" height="28" viewBox="0 0 30 28" fill="none" xmlns="http://www.w3.org/2000/svg">
<path d="M27.6923 7.45842H22.6489C23.3999 6.55227 23.7698 5.39523 23.6821 4.22681C23.5944 3.05839 23.0558 1.96806 22.1778 1.18152C21.2998 0.394975 20.1496 -0.027549 18.9654 0.00140792C17.7811 0.0303648 16.6534 0.508585 15.8158 1.33708C15.4817 1.68142 15.2062 2.07699 15 2.50843C14.7937 2.07698 14.5181 1.68139 14.1841 1.33701C13.3464 0.508533 12.2188 0.0303325 11.0345 0.00139405C9.85025 -0.0275444 8.70009 0.394995 7.82211 1.18155C6.94412 1.9681 6.40554 3.05843 6.31786 4.22684C6.23017 5.39526 6.6001 6.55228 7.35105 7.45842H2.30769C1.69587 7.4591 1.1093 7.69979 0.676673 8.12767C0.244047 8.55556 0.000693623 9.13569 0 9.74081V14.3056C0.000693623 14.9107 0.244047 15.4909 0.676673 15.9188C1.1093 16.3466 1.69587 16.5873 2.30769 16.588V25.7176C2.30839 26.3227 2.55175 26.9029 2.98437 27.3307C3.417 27.7586 4.00356 27.9993 4.61538 28H25.3846C25.9964 27.9993 26.583 27.7586 27.0156 27.3307C27.4483 26.9029 27.6916 26.3227 27.6923 25.7176V16.588C28.3041 16.5873 28.8907 16.3466 29.3233 15.9188C29.756 15.4909 29.9993 14.9107 30 14.3056V9.74081C29.9993 9.13569 29.756 8.55556 29.3233 8.12767C28.8907 7.69979 28.3041 7.4591 27.6923 7.45842ZM17.4476 2.95098C17.6618 2.73895 17.9162 2.57074 18.1962 2.45596C18.4762 2.34119 18.7764 2.28209 19.0795 2.28205C19.3826 2.28201 19.6827 2.34103 19.9628 2.45573C20.2428 2.57043 20.4972 2.73857 20.7116 2.95054C20.9259 3.16252 21.0959 3.41417 21.2119 3.69114C21.3279 3.96811 21.3875 4.26496 21.3875 4.56474C21.3875 4.86452 21.3277 5.16135 21.2117 5.43829C21.0956 5.71523 20.9256 5.96685 20.7112 6.17878C19.9986 6.88364 17.9383 7.27944 16.203 7.40976C16.3348 5.69337 16.735 3.65576 17.4476 2.95098ZM9.28866 2.95098C9.7218 2.52359 10.3086 2.28358 10.9205 2.28357C11.5323 2.28356 12.1192 2.52357 12.5523 2.95094C13.265 3.6558 13.6652 5.69357 13.797 7.40973C12.0616 7.27937 10.0014 6.88357 9.2888 6.17878C8.85668 5.75041 8.61399 5.17001 8.61397 4.56491C8.61394 3.9598 8.85658 3.37938 9.28866 2.95098ZM27.6923 14.3056H16.1538V24.5764C16.1538 24.8791 16.0323 25.1693 15.8159 25.3834C15.5995 25.5974 15.306 25.7176 15 25.7176C14.694 25.7176 14.4005 25.5974 14.1841 25.3834C13.9677 25.1693 13.8462 24.8791 13.8462 24.5764V14.3056H2.30769V9.74081H13.8462V14.3056H16.1538V9.74081H27.6923L27.6937 14.3055L27.6923 14.3056Z" fill="white"/>
</svg>
