<svg width="30" height="28" viewBox="0 0 30 28" fill="none" xmlns="http://www.w3.org/2000/svg">
<path d="M27.9578 7.77523H21.0931C21.4337 7.59973 21.7466 7.37498 22.0217 7.1082C22.4083 6.72155 22.715 6.26253 22.9243 5.75734C23.1335 5.25216 23.2412 4.7107 23.2412 4.16389C23.2412 3.61708 23.1335 3.07562 22.9243 2.57044C22.715 2.06525 22.4083 1.60623 22.0217 1.21957C21.635 0.832922 21.176 0.526212 20.6708 0.316957C20.1656 0.107702 19.6242 -7.48073e-08 19.0773 0C18.5305 7.48074e-08 17.9891 0.107702 17.4839 0.316958C16.9787 0.526213 16.5197 0.832922 16.133 1.21958C15.6037 1.74892 15.1819 2.57875 14.8712 3.69372C14.5604 2.57875 14.1386 1.74892 13.6093 1.2195C12.8282 0.439708 11.7694 0.00194462 10.6657 0.00241609C9.56194 0.00288756 8.50355 0.441556 7.7231 1.22202C6.94265 2.00248 6.50399 3.06087 6.50353 4.16461C6.50308 5.26834 6.94085 6.3271 7.72066 7.1082C7.99572 7.37498 8.30861 7.59973 8.64923 7.77523H1.78454C1.31141 7.77575 0.857809 7.96393 0.523257 8.29848C0.188704 8.63304 0.000522728 9.08664 0 9.55977V14.3185C0.000522728 14.7917 0.188704 15.2453 0.523257 15.5798C0.857809 15.9144 1.31141 16.1026 1.78454 16.1031H2.37938V26.2155C2.37991 26.6886 2.5681 27.1422 2.90265 27.4767C3.2372 27.8113 3.6908 27.9995 4.16392 28H25.5784C26.0515 27.9995 26.5051 27.8113 26.8397 27.4767C27.1742 27.1422 27.3624 26.6886 27.3629 26.2155V16.1031H27.9578C28.4309 16.1026 28.8845 15.9144 29.2191 15.5798C29.5536 15.2453 29.7418 14.7917 29.7423 14.3185V9.55977C29.7418 9.08664 29.5536 8.63304 29.2191 8.29848C28.8845 7.96393 28.4309 7.77575 27.9578 7.77523ZM16.9742 2.0608C17.5319 1.503 18.2885 1.18963 19.0773 1.18962C19.4679 1.18961 19.8546 1.26653 20.2155 1.416C20.5764 1.56546 20.9042 1.78454 21.1804 2.06072C21.4566 2.33691 21.6757 2.66478 21.8252 3.02564C21.9747 3.38649 22.0516 3.77325 22.0516 4.16384C22.0516 4.55442 21.9747 4.94119 21.8252 5.30205C21.6758 5.66291 21.4567 5.99079 21.1805 6.26698C20.1009 7.34648 17.1094 7.69056 15.4807 7.76063C15.5507 6.13189 15.8947 3.1403 16.9742 2.0608ZM8.56181 2.0608C9.12005 1.50386 9.87641 1.19108 10.665 1.19107C11.4535 1.19106 12.2099 1.50383 12.7681 2.06076C13.8476 3.1403 14.1916 6.13189 14.2616 7.76063C12.6329 7.69056 9.64142 7.34648 8.56181 6.26698C8.00493 5.70873 7.6922 4.95241 7.69219 4.16389C7.69219 3.37538 8.00493 2.61905 8.56181 2.0608ZM1.18969 14.3185V9.55977C1.18986 9.40205 1.25259 9.25085 1.3641 9.13933C1.47562 9.02781 1.62683 8.96509 1.78454 8.96492H14.2763V14.9134H1.78454C1.62683 14.9132 1.47562 14.8505 1.3641 14.739C1.25259 14.6275 1.18986 14.4762 1.18969 14.3185ZM3.56908 26.2155V16.1031H14.2763V26.8103H4.16392C4.00621 26.8101 3.85501 26.7474 3.74349 26.6359C3.63197 26.5244 3.56925 26.3732 3.56908 26.2155ZM26.1732 26.2155C26.1731 26.3732 26.1103 26.5244 25.9988 26.6359C25.8873 26.7474 25.7361 26.8101 25.5784 26.8103H15.466V16.1031H26.1732V26.2155ZM28.5526 14.3185C28.5525 14.4762 28.4897 14.6275 28.3782 14.739C28.2667 14.8505 28.1155 14.9132 27.9578 14.9134H15.466V8.96492H27.9578C28.1155 8.96509 28.2667 9.02781 28.3782 9.13933C28.4897 9.25085 28.5525 9.40205 28.5526 9.55977V14.3185Z" fill="white"/>
</svg>
