<svg width="27" height="28" viewBox="0 0 27 28" fill="none" xmlns="http://www.w3.org/2000/svg">
<path d="M25.2391 28H25.239L18.1945 27.9991C17.7277 27.9984 17.2802 27.8111 16.9502 27.4782C16.6201 27.1453 16.4345 26.694 16.4339 26.2233V19.12C16.4338 18.963 16.3719 18.8126 16.2618 18.7016C16.1518 18.5906 16.0026 18.5282 15.847 18.528H11.1513C10.9957 18.5282 10.8465 18.5906 10.7365 18.7016C10.6264 18.8126 10.5645 18.963 10.5644 19.12V26.2233C10.5638 26.694 10.3781 27.1454 10.0481 27.4783C9.71799 27.8112 9.27045 27.9985 8.80363 27.9991L1.76116 28C1.52989 28.0001 1.30087 27.9542 1.08719 27.8649C0.873511 27.7757 0.679352 27.6449 0.515805 27.48C0.352258 27.3151 0.222527 27.1193 0.134024 26.9039C0.045521 26.6884 -2.06241e-05 26.4574 7.00651e-09 26.2242V12.5417C0.00020574 12.2943 0.0515682 12.0497 0.150807 11.8235C0.250046 11.5972 0.394979 11.3944 0.576352 11.2278L12.3145 0.464397C12.6379 0.165711 13.0605 2.73949e-05 13.499 3.39689e-09C13.9376 -2.73881e-05 14.3602 0.165604 14.6837 0.464249L26.4236 11.2279C26.605 11.3944 26.7499 11.5973 26.8492 11.8236C26.9484 12.0498 26.9998 12.2944 27 12.5418V26.2242C27 26.4574 26.9545 26.6883 26.866 26.9038C26.7775 27.1193 26.6478 27.315 26.4843 27.4799C26.3208 27.6448 26.1267 27.7756 25.913 27.8649C25.6994 27.9541 25.4704 28 25.2391 28ZM11.1513 17.3442H15.847C16.3138 17.3447 16.7614 17.532 17.0915 17.8649C17.4216 18.1978 17.6073 18.6492 17.6078 19.12V26.2233C17.608 26.3802 17.6699 26.5306 17.7799 26.6416C17.8899 26.7526 18.0391 26.815 18.1946 26.8152L25.2391 26.8161C25.3948 26.8161 25.5441 26.7538 25.6542 26.6428C25.7642 26.5317 25.8261 26.3812 25.8261 26.2242V12.5418C25.826 12.4593 25.8089 12.3777 25.7758 12.3023C25.7427 12.2269 25.6944 12.1592 25.6339 12.1037L13.8941 1.34022C13.7862 1.24069 13.6453 1.1855 13.4991 1.18552C13.3529 1.18555 13.212 1.24079 13.1042 1.34037L1.36608 12.1038C1.30559 12.1593 1.25726 12.2269 1.22417 12.3023C1.19108 12.3777 1.17396 12.4592 1.17391 12.5417V26.2242C1.17392 26.302 1.18911 26.3789 1.21861 26.4508C1.24812 26.5226 1.29137 26.5878 1.34589 26.6428C1.40041 26.6978 1.46513 26.7414 1.53636 26.7711C1.60758 26.8009 1.68392 26.8162 1.76102 26.8161L8.80349 26.8152C8.95911 26.815 9.1083 26.7526 9.21834 26.6416C9.32837 26.5307 9.39027 26.3802 9.39045 26.2233V19.12C9.39097 18.6492 9.57666 18.1978 9.90677 17.8649C10.2369 17.532 10.6845 17.3447 11.1513 17.3442Z" fill="white"/>
</svg>
