<svg width="28" height="28" viewBox="0 0 28 28" fill="none" xmlns="http://www.w3.org/2000/svg">
<path d="M27.2592 12.6014V25.7284C27.2592 26.0267 27.2005 26.3221 27.0863 26.5977C26.9721 26.8733 26.8048 27.1237 26.5939 27.3347C26.3829 27.5456 26.1325 27.7129 25.8569 27.8271C25.5813 27.9412 25.2859 28 24.9876 28H24.9873L18.1718 27.999C17.8706 27.9989 17.5818 27.8792 17.3688 27.6662C17.1558 27.4532 17.0362 27.1644 17.0362 26.8632V17.7768H10.2214V26.8632C10.2214 27.1644 10.1017 27.4532 9.88876 27.6663C9.67579 27.8793 9.38693 27.9989 9.08572 27.999L2.27188 28C1.97355 28 1.67813 27.9413 1.40249 27.8272C1.12686 27.713 0.876402 27.5457 0.665434 27.3348C0.454466 27.1238 0.287116 26.8734 0.17294 26.5978C0.058764 26.3221 -1.12122e-06 26.0267 0 25.7284V12.6013C0.000276104 12.2849 0.066545 11.9719 0.194575 11.6825C0.322605 11.3931 0.509582 11.1336 0.743566 10.9205L12.1006 0.594096C12.5178 0.211998 13.063 3.83741e-05 13.6287 5.21005e-09C14.1944 -3.83637e-05 14.7396 0.211847 15.1568 0.593889L26.5158 10.9206C26.7497 11.1337 26.9366 11.3932 27.0646 11.6826C27.1926 11.972 27.2589 12.2849 27.2592 12.6014Z" fill="white"/>
</svg>
