<?xml version="1.0" standalone="no"?>
<!DOCTYPE svg PUBLIC "-//W3C//DTD SVG 20010904//EN"
 "http://www.w3.org/TR/2001/REC-SVG-20010904/DTD/svg10.dtd">
<svg version="1.0" xmlns="http://www.w3.org/2000/svg"
 width="512.000000pt" height="512.000000pt" viewBox="0 0 512.000000 512.000000"
 preserveAspectRatio="xMidYMid meet">

<g transform="translate(0.000000,512.000000) scale(0.100000,-0.100000)"
fill="#000000" stroke="none">
<path d="M1282 5113 c-7 -3 -19 -18 -28 -35 -27 -52 -6 -80 105 -143 54 -30
107 -55 120 -55 30 0 71 43 71 75 0 36 -31 64 -131 118 -82 45 -107 52 -137
40z"/>
<path d="M3695 5069 c-100 -56 -125 -79 -125 -116 0 -30 42 -73 72 -73 34 0
211 103 226 131 24 46 -12 109 -62 109 -12 0 -62 -23 -111 -51z"/>
<path d="M2030 4836 c-101 -27 -135 -64 -114 -123 15 -42 51 -50 134 -29 87
23 158 17 234 -17 111 -51 188 -158 202 -281 7 -66 29 -96 70 -96 56 0 76 30
88 132 13 106 106 219 209 255 79 27 188 24 257 -8 100 -47 154 -108 184 -209
40 -135 -2 -269 -143 -455 -103 -136 -343 -360 -524 -489 l-68 -48 -97 73
c-329 250 -546 487 -618 675 -33 86 -38 194 -11 270 21 59 11 94 -30 113 -33
15 -47 14 -75 -8 -59 -46 -84 -263 -44 -381 55 -161 152 -298 355 -500 180
-179 474 -410 521 -410 53 0 322 211 515 405 268 267 385 465 385 650 0 194
-102 360 -272 440 -202 96 -419 57 -567 -101 l-62 -66 -22 29 c-114 149 -335
227 -507 179z"/>
<path d="M1071 4374 c-24 -31 -26 -43 -10 -78 16 -34 56 -46 154 -46 91 0 140
13 155 40 16 30 12 68 -10 90 -18 18 -33 20 -144 20 -123 0 -125 0 -145 -26z"/>
<path d="M3760 4380 c-38 -38 -22 -100 31 -119 41 -14 187 -14 227 0 34 12 58
56 47 88 -14 46 -29 51 -161 51 -111 0 -126 -2 -144 -20z"/>
<path d="M1361 3725 c-56 -31 -100 -65 -108 -79 -25 -48 10 -106 65 -106 29 0
208 105 222 130 5 10 10 28 10 40 0 28 -43 70 -72 70 -13 0 -66 -25 -117 -55z"/>
<path d="M3595 3755 c-55 -54 -24 -100 118 -175 74 -39 89 -43 113 -35 37 13
59 56 47 93 -7 20 -35 42 -109 85 -54 31 -109 57 -122 57 -13 0 -34 -11 -47
-25z"/>
<path d="M1455 3214 c-658 -99 -1172 -515 -1365 -1104 -57 -175 -74 -285 -74
-495 0 -239 26 -389 105 -590 194 -499 658 -880 1207 -991 406 -82 835 -2
1165 217 32 22 62 39 67 39 5 0 42 -21 81 -46 363 -235 862 -303 1304 -178
171 48 414 168 495 244 36 33 40 76 10 108 -33 35 -69 28 -166 -34 -164 -103
-333 -172 -514 -211 -66 -14 -128 -18 -275 -18 -170 1 -202 4 -303 28 -570
134 -1023 597 -1143 1170 -29 136 -31 370 -5 507 36 184 113 380 211 531 l47
72 82 -82 83 -83 -48 -80 c-168 -279 -205 -643 -99 -969 102 -312 333 -585
617 -732 182 -94 343 -132 558 -131 275 1 514 79 730 238 643 476 672 1435 57
1927 -229 183 -471 276 -748 286 -226 9 -392 -25 -580 -118 l-101 -50 -83 81
c-45 45 -80 83 -78 84 1 2 35 21 73 43 138 80 292 137 465 174 147 31 390 31
537 0 199 -42 399 -129 566 -248 105 -74 276 -245 350 -350 125 -176 227 -419
261 -622 21 -122 21 -331 0 -452 -45 -264 -175 -531 -361 -742 -57 -64 -36
-147 37 -147 80 0 309 331 395 570 118 331 122 697 9 1045 -38 119 -154 347
-231 455 -87 121 -252 286 -373 373 -173 123 -399 220 -615 264 -139 28 -493
25 -632 -5 -198 -43 -389 -120 -540 -217 l-73 -47 -72 48 c-88 58 -246 134
-351 169 -158 53 -248 66 -457 70 -107 2 -208 1 -225 -1z m410 -159 c489 -79
899 -402 1103 -867 194 -443 159 -952 -93 -1346 -26 -39 -51 -72 -56 -72 -14
0 -148 130 -154 149 -3 11 10 44 35 84 52 87 105 215 132 324 19 75 23 115 22
268 0 154 -3 193 -23 272 -145 584 -626 973 -1201 973 -812 0 -1403 -767
-1195 -1550 102 -384 418 -711 816 -844 137 -46 233 -61 389 -61 209 0 355 34
537 125 l92 47 82 -83 82 -83 -64 -40 c-83 -53 -221 -113 -331 -145 -354 -102
-747 -59 -1088 121 -148 77 -248 152 -370 273 -359 358 -495 851 -375 1356 98
412 378 765 761 957 148 74 296 120 484 150 66 11 333 6 415 -8z m50 -399 c82
-24 255 -99 255 -110 0 -2 -23 -42 -52 -88 -98 -157 -167 -331 -210 -525 -19
-84 -22 -130 -22 -318 0 -191 3 -233 22 -322 43 -197 118 -383 223 -548 23
-36 40 -67 38 -69 -12 -10 -122 -62 -177 -83 -429 -161 -950 1 -1240 386 -228
303 -273 734 -112 1078 151 323 461 556 829 624 25 4 116 6 201 5 132 -3 168
-8 245 -30z m1758 19 c219 -38 444 -159 605 -324 271 -277 368 -689 251 -1060
-171 -537 -757 -866 -1301 -727 -89 22 -278 101 -278 115 0 3 19 33 41 66 56
83 142 264 173 362 58 188 70 271 70 503 0 186 -3 229 -23 320 -44 205 -116
386 -217 543 -24 37 -44 70 -44 72 0 21 254 118 351 134 87 14 279 12 372 -4z
m-1062 -610 c109 -233 128 -540 49 -785 -26 -78 -88 -210 -99 -210 -11 0 -69
121 -97 202 -75 222 -69 498 16 726 29 77 69 152 81 152 6 0 28 -38 50 -85z"/>
</g>
</svg>
