<?xml version="1.0" standalone="no"?>
<!DOCTYPE svg PUBLIC "-//W3C//DTD SVG 20010904//EN"
 "http://www.w3.org/TR/2001/REC-SVG-20010904/DTD/svg10.dtd">
<svg version="1.0" xmlns="http://www.w3.org/2000/svg"
 width="512.000000pt" height="512.000000pt" viewBox="0 0 512.000000 512.000000"
 preserveAspectRatio="xMidYMid meet">

<g transform="translate(0.000000,512.000000) scale(0.100000,-0.100000)"
fill="#000000" stroke="none">
<path d="M2326 4879 c-437 -56 -825 -242 -1135 -543 -302 -294 -491 -644 -566
-1050 -15 -82 -21 -95 -69 -155 -76 -95 -107 -144 -160 -250 -54 -107 -107
-258 -133 -381 -25 -116 -25 -394 0 -493 9 -38 17 -70 17 -73 0 -2 -41 -4 -90
-4 -104 0 -140 -13 -170 -63 -17 -27 -20 -51 -20 -160 0 -183 22 -223 135
-234 l52 -6 7 -66 c4 -36 16 -106 28 -156 118 -505 524 -891 1048 -997 98 -20
2485 -19 2585 1 477 94 869 440 1014 893 31 97 61 245 61 298 0 26 3 28 54 33
114 12 136 50 136 234 0 109 -3 133 -20 160 -30 50 -66 63 -170 63 -49 0 -90
2 -90 4 0 3 8 35 17 73 25 99 25 377 0 493 -51 237 -152 457 -292 631 -48 60
-55 73 -69 151 -115 613 -515 1139 -1071 1408 -204 99 -394 156 -613 185 -122
16 -374 18 -486 4z m539 -162 c209 -40 356 -90 544 -188 412 -213 730 -588
877 -1034 23 -71 41 -131 40 -133 -2 -1 -32 13 -67 31 -35 18 -78 38 -95 44
-24 9 -35 21 -44 50 -44 137 -178 367 -294 506 -52 61 -60 67 -95 67 -45 0
-74 -27 -74 -69 0 -20 17 -50 60 -102 84 -103 135 -181 193 -298 27 -55 50
-103 50 -106 0 -3 -29 -5 -63 -5 -215 0 -452 -135 -630 -359 l-51 -63 -58 66
c-74 82 -197 175 -291 220 -109 52 -186 70 -307 70 -121 0 -198 -18 -307 -70
-94 -45 -217 -138 -291 -220 l-58 -66 -52 64 c-170 214 -390 344 -604 356 -49
3 -88 7 -88 9 0 14 108 215 142 267 301 446 787 695 1317 673 272 -11 514 -85
741 -227 48 -30 97 -53 112 -53 41 0 68 29 68 74 0 35 -5 43 -47 74 -66 47
-261 147 -361 184 -359 133 -772 134 -1134 5 -108 -39 -295 -137 -395 -207
-135 -95 -324 -289 -416 -427 -72 -110 -160 -279 -187 -363 -9 -29 -20 -41
-44 -50 -17 -6 -60 -26 -95 -44 -35 -18 -65 -32 -67 -31 -1 2 17 62 40 133 97
293 265 553 493 764 264 244 611 411 953 460 41 6 86 13 100 15 56 10 409 -3
485 -17z m-1532 -1403 c158 -41 325 -168 441 -338 l37 -52 -44 -85 c-25 -46
-52 -105 -62 -131 -12 -33 -29 -55 -61 -77 l-43 -32 -48 35 c-115 81 -222 116
-360 116 -139 0 -258 -38 -357 -115 -32 -24 -54 -34 -61 -29 -57 45 -149 96
-206 115 -80 27 -79 23 -18 136 193 353 498 531 782 457z m2720 0 c200 -52
396 -230 527 -477 l35 -67 -57 -57 -57 -57 -84 82 c-110 107 -114 107 -224 0
l-84 -83 -78 83 c-67 71 -82 82 -111 82 -29 0 -44 -11 -111 -82 l-78 -83 -84
83 c-103 100 -116 102 -188 35 -27 -25 -50 -44 -52 -42 -1 2 -23 47 -50 99
l-47 94 36 53 c84 122 209 235 324 293 114 58 264 75 383 44z m-1463 -52 c0
-4 -182 -189 -406 -412 -316 -316 -404 -398 -398 -375 14 60 67 202 101 270
139 276 344 462 564 509 72 16 139 20 139 8z m240 -67 c28 -14 50 -29 50 -33
0 -4 -251 -258 -559 -566 -616 -616 -571 -580 -571 -451 l0 60 507 507 c280
280 511 508 516 508 4 0 30 -11 57 -25z m225 -182 c22 -26 46 -55 54 -66 13
-18 -22 -55 -485 -518 l-499 -499 -130 0 -130 0 565 565 c311 311 570 565 575
565 6 0 29 -21 50 -47z m184 -281 l30 -59 -372 -371 -372 -372 -90 0 -90 0
430 430 c236 237 431 430 432 430 2 0 16 -26 32 -58z m379 -182 c102 -106 108
-106 218 2 l84 82 84 -82 c110 -108 116 -108 218 -2 42 44 81 80 87 80 5 0 36
-30 68 -66 58 -65 97 -94 129 -94 9 0 49 32 89 71 40 39 76 66 79 61 10 -17
46 -176 46 -207 0 -25 -15 -45 -75 -105 l-75 -75 -93 93 c-126 125 -131 125
-249 0 l-88 -93 -93 93 c-125 124 -129 124 -254 0 l-93 -93 -88 93 c-48 51
-92 92 -98 92 -6 0 -19 38 -29 86 l-18 85 28 30 c16 16 33 29 38 29 5 0 43
-36 85 -80z m-3117 34 c76 -23 121 -47 179 -99 82 -72 120 -72 210 2 30 25 84
60 120 77 61 29 72 31 180 31 134 -1 192 -18 275 -85 77 -61 108 -80 134 -80
21 0 23 -3 17 -32 -3 -17 -9 -68 -12 -114 l-7 -82 -46 33 c-113 80 -221 115
-358 115 -139 0 -258 -38 -357 -115 -32 -24 -54 -34 -61 -29 -98 75 -197 120
-301 137 l-76 12 6 57 c5 50 35 188 40 188 1 0 27 -7 57 -16z m2843 -156 c9
-46 16 -94 16 -108 0 -19 -44 -68 -182 -207 l-183 -183 -130 0 -130 0 290 290
c159 160 293 290 296 290 3 0 14 -37 23 -82z m669 -303 c121 -125 119 -125
247 0 l97 95 89 -95 c113 -120 119 -121 216 -28 57 56 69 63 64 43 -2 -14 -8
-43 -11 -65 -3 -22 -13 -64 -21 -92 l-15 -53 -202 0 c-191 0 -205 -1 -225 -20
-30 -28 -30 -82 0 -110 21 -19 33 -20 370 -20 l348 0 0 -80 0 -80 -2410 0
-2410 0 0 80 0 80 1913 0 c1912 0 1913 0 1935 20 14 14 22 33 22 55 0 22 -8
41 -22 55 -21 19 -34 20 -263 20 l-241 0 12 73 c7 39 13 96 14 126 l0 54 79
-76 c107 -104 110 -104 226 17 50 52 91 95 93 95 2 1 44 -42 95 -94z m-3470
45 c31 -12 80 -40 108 -63 88 -72 101 -78 142 -73 26 3 55 19 95 52 92 76 170
108 278 112 139 6 233 -27 340 -119 25 -22 59 -42 74 -46 24 -4 29 -12 37 -54
l10 -49 -593 0 -593 0 -16 54 c-17 58 -35 158 -35 195 0 23 2 23 48 18 26 -3
73 -15 105 -27z m2820 -117 c-2 -16 -9 -49 -15 -75 l-10 -48 -66 0 -66 0 74
75 c41 41 77 75 81 75 3 0 4 -12 2 -27z m-2743 -743 l0 -160 -109 0 -109 0
-20 78 c-24 87 -42 184 -42 219 0 23 0 23 140 23 l140 0 0 -160z m430 0 l0
-160 -140 0 -140 0 0 160 0 160 140 0 140 0 0 -160z m390 0 l0 -160 -120 0
-120 0 0 160 0 160 120 0 120 0 0 -160z m440 0 l0 -160 -145 0 -145 0 0 160 0
160 145 0 145 0 0 -160z m390 0 l0 -160 -120 0 -120 0 0 160 0 160 120 0 120
0 0 -160z m430 0 l0 -160 -140 0 -140 0 0 160 0 160 140 0 140 0 0 -160z m390
0 l0 -160 -120 0 -120 0 0 160 0 160 120 0 120 0 0 -160z m440 0 l0 -160 -145
0 -145 0 0 160 0 160 145 0 145 0 0 -160z m390 0 l0 -160 -120 0 -120 0 0 160
0 160 120 0 120 0 0 -160z m430 0 l0 -160 -140 0 -140 0 0 160 0 160 140 0
140 0 0 -160z m430 138 c0 -39 -18 -134 -41 -218 l-21 -80 -109 0 -109 0 0
160 0 160 140 0 c139 0 140 0 140 -22z m-156 -491 c-15 -23 -40 -61 -56 -84
l-29 -43 -1343 0 c-1337 0 -1342 0 -1364 -20 -14 -14 -22 -33 -22 -55 0 -22 8
-41 22 -55 22 -20 28 -20 1291 -20 1259 0 1270 0 1252 -20 -58 -64 -290 -193
-415 -230 -170 -50 -161 -50 -1400 -50 -1259 0 -1240 -1 -1415 56 -101 33
-220 92 -311 156 -140 96 -167 88 308 88 403 0 415 1 436 20 14 14 22 33 22
55 0 22 -8 41 -22 55 -21 20 -32 20 -509 20 l-487 0 -24 33 c-13 17 -38 56
-56 85 l-32 52 2090 0 2090 0 -26 -43z"/>
</g>
</svg>
