<svg width="20" height="20" viewBox="0 0 20 20" fill="none" xmlns="http://www.w3.org/2000/svg">
<path fill-rule="evenodd" clip-rule="evenodd" d="M6.5 0.5H13.5C16.8137 0.5 19.5 3.18629 19.5 6.5V13.5C19.5 16.8137 16.8137 19.5 13.5 19.5H6.5C3.18629 19.5 0.5 16.8137 0.5 13.5V6.5C0.5 3.18629 3.18629 0.5 6.5 0.5ZM13.5 18C15.983 17.9945 17.9945 15.983 18 13.5V6.5C17.9945 4.017 15.983 2.0055 13.5 2H6.5C4.017 2.0055 2.0055 4.017 2 6.5V13.5C2.0055 15.983 4.017 17.9945 6.5 18H13.5Z" fill="black"/>
<path d="M13.18 5C12.768 5.00539 12.4354 5.33804 12.43 5.75C12.4196 6.38126 12.1567 6.98203 11.7 7.41801C11.2434 7.85398 10.6311 8.08881 10 8.07C8.70017 8.1093 7.61349 7.0897 7.57 5.79C7.57 5.37579 7.23421 5.04 6.82 5.04C6.40579 5.04 6.07 5.37579 6.07 5.79C6.11376 7.91804 7.87187 9.60905 10 9.57C12.1281 9.60905 13.8862 7.91804 13.93 5.79C13.941 5.58425 13.8668 5.38304 13.725 5.23362C13.5831 5.08419 13.386 4.99971 13.18 5Z" fill="black"/>
</svg>
