<svg width="25" height="25" viewBox="0 0 25 25" fill="none" xmlns="http://www.w3.org/2000/svg">
<path d="M19.7878 18.0787L24.9631 23.2528L23.2533 24.9626L18.0792 19.7873C16.154 21.3306 13.7594 22.17 11.292 22.1665C5.28899 22.1665 0.416992 17.2945 0.416992 11.2915C0.416992 5.2885 5.28899 0.416504 11.292 0.416504C17.295 0.416504 22.167 5.2885 22.167 11.2915C22.1705 13.7589 21.3311 16.1535 19.7878 18.0787ZM17.3639 17.1821C18.8974 15.6051 19.7538 13.4912 19.7503 11.2915C19.7503 6.61767 15.9646 2.83317 11.292 2.83317C6.61816 2.83317 2.83366 6.61767 2.83366 11.2915C2.83366 15.9641 6.61816 19.7498 11.292 19.7498C13.4917 19.7533 15.6056 18.8969 17.1826 17.3634L17.3639 17.1821Z" fill="white"/>
</svg>
