<svg width="34" height="32" viewBox="0 0 34 32" fill="none" xmlns="http://www.w3.org/2000/svg">
<path d="M32.4711 30.0527C31.2185 27.8958 29.536 26.0193 27.528 24.5398C25.52 23.0602 23.2293 22.0092 20.7981 21.452C23.0763 20.5202 24.9602 18.8262 26.1277 16.6594C27.2953 14.4926 27.674 11.9875 27.1993 9.57242C26.7245 7.1573 25.4257 4.98204 23.5248 3.41845C21.6239 1.85485 19.2389 1 16.7776 1C14.3162 1 11.9313 1.85485 10.0304 3.41845C8.12948 4.98204 6.83065 7.1573 6.35587 9.57242C5.88109 11.9875 6.25986 14.4926 7.42742 16.6594C8.59498 18.8262 10.4788 20.5202 12.757 21.452C10.3259 22.0092 8.0353 23.0602 6.02732 24.5396C4.01933 26.0191 2.33685 27.8955 1.08431 30.0523C1.04312 30.1233 1.01633 30.2018 1.00548 30.2831C0.99463 30.3645 0.999923 30.4472 1.02106 30.5266C1.0422 30.6059 1.07876 30.6803 1.12866 30.7455C1.17857 30.8107 1.24083 30.8654 1.31189 30.9065C1.38295 30.9477 1.46142 30.9744 1.54282 30.9851C1.62421 30.9959 1.70692 30.9905 1.78624 30.9693C1.86555 30.9481 1.93991 30.9115 2.00506 30.8615C2.0702 30.8116 2.12487 30.7492 2.16592 30.6781C3.64728 28.1139 5.77739 25.9846 8.34224 24.5042C10.9071 23.0239 13.8163 22.2446 16.7778 22.2446C19.7392 22.2446 22.6484 23.024 25.2132 24.5044C27.7781 25.9848 29.9081 28.1141 31.3895 30.6784C31.4725 30.8216 31.6091 30.926 31.7691 30.9686C31.929 31.0112 32.0994 30.9886 32.2427 30.9057C32.386 30.8228 32.4906 30.6864 32.5334 30.5264C32.5762 30.3665 32.5538 30.1961 32.4711 30.0527ZM7.40595 11.6234C7.40595 9.7699 7.95559 7.95799 8.98536 6.41684C10.0151 4.87568 11.4788 3.6745 13.1912 2.96518C14.9036 2.25587 16.788 2.07028 18.6059 2.43188C20.4238 2.79349 22.0937 3.68605 23.4043 4.9967C24.715 6.30734 25.6075 7.9772 25.9691 9.79512C26.3307 11.613 26.1451 13.4974 25.4358 15.2098C24.7265 16.9222 23.5253 18.3859 21.9842 19.4156C20.443 20.4454 18.6311 20.9951 16.7776 20.9951C14.2929 20.9922 11.9109 20.004 10.1539 18.2471C8.39704 16.4901 7.40877 14.1081 7.40595 11.6234Z" fill="white" stroke="white"/>
<circle cx="16.5" cy="11.5" r="9.5" fill="white"/>
<line x1="2" y1="30.5" x2="31" y2="30.5" stroke="white"/>
<path d="M21.6777 25.4395L24.915 27.5H8.20117L8.57129 27.0361L12.1484 25.4473L16.5195 25.0098L21.6777 25.4395Z" fill="white" stroke="white" stroke-width="5"/>
</svg>
