<svg width="30" height="28" viewBox="0 0 30 28" fill="none" xmlns="http://www.w3.org/2000/svg">
<path d="M29.3823 27.1244C28.2129 25.1106 26.642 23.3587 24.7673 21.9774C22.8925 20.596 20.7539 19.6148 18.4841 19.0945C20.611 18.2246 22.3699 16.643 23.4599 14.62C24.55 12.5971 24.9036 10.2583 24.4604 8.00345C24.0171 5.74862 22.8045 3.71774 21.0297 2.25793C19.255 0.798115 17.0284 0 14.7304 0C12.4324 0 10.2057 0.798115 8.43101 2.25793C6.65628 3.71774 5.44365 5.74862 5.00039 8.00345C4.55713 10.2583 4.91075 12.5971 6.00081 14.62C7.09088 16.643 8.84971 18.2246 10.9767 19.0945C8.70695 19.6148 6.56835 20.596 4.69364 21.9772C2.81893 23.3585 1.24812 25.1103 0.0787105 27.124C0.0402577 27.1903 0.0152505 27.2636 0.00511852 27.3396C-0.00501349 27.4155 -7.16825e-05 27.4928 0.0196615 27.5668C0.0393946 27.6409 0.0735324 27.7104 0.120123 27.7712C0.166713 27.8321 0.224843 27.8832 0.29119 27.9216C0.357536 27.96 0.430798 27.9849 0.506787 27.995C0.582777 28.005 0.660004 28 0.734054 27.9802C0.808104 27.9604 0.877525 27.9262 0.938348 27.8795C0.999172 27.8329 1.05021 27.7747 1.08853 27.7083C2.47158 25.3143 4.4603 23.3263 6.85492 21.9442C9.24953 20.5621 11.9657 19.8345 14.7305 19.8345C17.4954 19.8346 20.2115 20.5622 22.6061 21.9443C25.0007 23.3265 26.9894 25.3145 28.3724 27.7085C28.45 27.8423 28.5775 27.9397 28.7268 27.9795C28.8762 28.0193 29.0353 27.9982 29.1691 27.9208C29.3029 27.8434 29.4005 27.716 29.4405 27.5667C29.4804 27.4174 29.4595 27.2583 29.3823 27.1244ZM5.98077 9.91833C5.98077 8.18782 6.49393 6.49617 7.45535 5.05731C8.41677 3.61845 9.78327 2.49699 11.382 1.83475C12.9808 1.17251 14.7401 0.999242 16.4373 1.33685C18.1346 1.67445 19.6936 2.50777 20.9173 3.73143C22.1409 4.95508 22.9743 6.51411 23.3119 8.21137C23.6495 9.90862 23.4762 11.6679 22.814 13.2667C22.1517 14.8654 21.0303 16.2319 19.5914 17.1934C18.1525 18.1548 16.4609 18.6679 14.7304 18.6679C12.4106 18.6653 10.1867 17.7426 8.54638 16.1023C6.90608 14.462 5.9834 12.2381 5.98077 9.91833Z" fill="white"/>
</svg>
